<svg width="88" height="26" viewBox="0 0 88 26" fill="none" xmlns="http://www.w3.org/2000/svg">
<path fill-rule="evenodd" clip-rule="evenodd" d="M23.2772 24.2138V6.57233H16.8911V24.2138H23.2772ZM16.8911 0V4.84277H23.2772V0H16.8911ZM8.49347 5.77673H7.74311C7.29608 5.77673 6.7373 5.82285 6.06676 5.91509C2.56507 6.80293 0.814224 8.80922 0.814224 11.934C0.814224 12.8795 1.03774 13.7788 1.48476 14.6321C2.2298 15.9235 3.83696 16.9266 6.30624 17.6415C8.55201 18.1027 9.67489 18.6562 9.67489 19.3019C9.67489 19.7631 9.20126 19.9937 8.25399 19.9937H7.85486C6.03483 19.9937 4.22545 19.4748 2.42671 18.4371H2.36284C2.29898 18.4486 1.51137 19.74 0 22.3113V22.3805C2.51185 24.1792 5.27383 25.0786 8.28592 25.0786H8.76488C9.24383 25.0786 9.87179 25.0325 10.6488 24.9403C14.1505 24.1447 15.9013 22.1384 15.9013 18.9214C15.9013 17.3648 15.4064 16.1195 14.4165 15.1855C13.6289 14.4015 12.0218 13.652 9.59507 12.9371C7.89211 12.5335 7.04064 12.1415 7.04064 11.761C7.15772 11.1614 7.54088 10.8616 8.19013 10.8616H8.58926C9.30237 10.8616 10.1805 11.0231 11.2235 11.3459L13.4107 12.0031C14.805 9.35115 15.5022 7.9675 15.5022 7.8522C13.1287 6.46855 10.7925 5.77673 8.49347 5.77673ZM41.8607 24.2138H35.8578V15.0126C35.8578 13.2945 35.3043 12.2338 34.1974 11.8302C33.9632 11.7841 33.7716 11.761 33.6226 11.761H33.2395C32.1113 11.761 31.3662 12.4759 31.0044 13.9057C30.9618 14.0786 30.9405 14.2862 30.9405 14.5283V24.2138H24.8737V6.57233H30.9405V8.78616C32.388 6.89518 34.0271 5.94969 35.8578 5.94969H36.3048C38.9337 5.94969 40.7005 7.37945 41.6052 10.239C41.7755 11.1038 41.8607 11.8878 41.8607 12.5912V24.2138ZM43.984 0.172956V6.57233H42.3716V11.4497H43.984V14.805C43.984 19.0828 45.3517 21.9423 48.0871 23.3836C49.5772 23.9371 51.0672 24.2138 52.5573 24.2138H55.1437V19.4575C52.7915 19.3307 51.4344 18.9906 51.0726 18.4371C50.6043 17.7338 50.3701 16.9843 50.3701 16.1887V11.4497H55.1437V6.57233H50.3701V0.172956H43.984ZM67.5965 6.2956L69.4485 6.71069V13.0755H68.4906C66.0213 13.0755 64.4035 13.8134 63.6372 15.2893C63.1688 16.0157 62.9347 17.3071 62.9347 19.1635V24.2138H56.7402V6.57233H62.807V10.1698L63.7649 8.44025C64.7866 7.01048 66.0639 6.2956 67.5965 6.2956ZM76.7924 18.1604C76.5796 17.5723 76.4732 16.7537 76.4732 15.7044V15.1509C76.4732 13.456 76.8989 12.3029 77.7504 11.6918C78.208 11.5535 78.5912 11.4843 78.8998 11.4843H79.283C80.6454 11.6342 81.3266 12.0031 81.3266 12.5912C81.582 12.8333 81.731 13.8249 81.7736 15.566C81.7736 17.9298 81.0924 19.2558 79.73 19.544C79.5278 19.544 79.3149 19.5671 79.0914 19.6132C77.9419 19.6132 77.1756 19.1289 76.7924 18.1604ZM74.1742 24.0409C75.1959 24.456 76.2177 24.6635 77.2395 24.6635C78.8679 24.6635 80.2942 24.1101 81.5181 23.0031H81.582V24.2138H87.984L88 6.57233H81.6139V8.16352C80.3899 7.0566 79.1021 6.50314 77.7504 6.50314H76.9202C74.3977 6.50314 72.3541 7.79455 70.7896 10.3774C70.0658 11.7495 69.7039 13.2945 69.7039 15.0126V15.2201C69.7039 19.4748 71.194 22.4151 74.1742 24.0409ZM41.7494 0.0214844H24.8281V4.82972H41.7494V0.0214844Z" fill="url(#paint0_linear_2185_2124)"/>
<defs>
<linearGradient id="paint0_linear_2185_2124" x1="0" y1="12.5393" x2="88" y2="12.5393" gradientUnits="userSpaceOnUse">
<stop stop-color="#6718CD"/>
<stop offset="1" stop-color="#2971FA"/>
</linearGradient>
</defs>
</svg>
